<?xml version="1.0" standalone="no"?>
<!DOCTYPE svg PUBLIC "-//W3C//DTD SVG 20010904//EN"
 "http://www.w3.org/TR/2001/REC-SVG-20010904/DTD/svg10.dtd">
<svg version="1.0" xmlns="http://www.w3.org/2000/svg"
 width="700.000000pt" height="700.000000pt" viewBox="0 0 700.000000 700.000000"
 preserveAspectRatio="xMidYMid meet">
<metadata>
Created by potrace 1.11, written by Peter Selinger 2001-2013
</metadata>
<g transform="translate(0.000000,700.000000) scale(0.100000,-0.100000)"
fill="#000000" stroke="none">
<path d="M0 3500 l0 -3500 3500 0 3500 0 0 3500 0 3500 -3500 0 -3500 0 0
-3500z m3915 2760 c304 -45 569 -127 840 -260 181 -88 289 -155 452 -277 272
-203 398 -383 411 -589 13 -219 -127 -409 -338 -458 -164 -39 -313 1 -436 117
-151 141 -192 357 -104 542 55 116 172 218 280 246 28 7 50 17 50 21 0 16
-109 60 -176 71 -78 13 -168 1 -247 -36 l-53 -24 -100 45 c-202 91 -463 163
-699 193 -126 16 -430 16 -555 0 -458 -58 -880 -236 -1226 -517 -269 -218
-478 -481 -635 -799 -167 -340 -243 -670 -242 -1055 0 -222 18 -361 74 -590
37 -148 41 -175 37 -260 -4 -106 -28 -171 -94 -261 -38 -52 -143 -134 -155
-122 -4 5 -29 60 -57 124 -101 233 -178 521 -214 794 -21 166 -16 541 11 715
77 506 252 920 559 1325 98 129 368 399 497 497 444 337 914 520 1480 578 142
14 479 4 640 -20z m2153 -1625 c103 -236 173 -477 213 -736 19 -122 23 -184
23 -404 0 -279 -16 -425 -69 -650 -185 -784 -716 -1466 -1428 -1835 -233 -121
-495 -213 -752 -265 -209 -42 -297 -50 -560 -49 -205 1 -275 5 -390 23 -487
75 -914 252 -1287 533 -275 207 -398 381 -415 588 -24 281 234 516 518 472
204 -31 367 -192 401 -395 32 -195 -75 -402 -255 -492 -38 -19 -78 -35 -88
-35 -37 0 -28 -20 18 -43 115 -58 255 -61 365 -10 l62 29 97 -42 c329 -145
627 -208 984 -208 231 0 352 14 560 64 797 191 1447 786 1700 1558 149 457
162 901 39 1379 -51 200 -45 314 26 438 41 72 174 195 192 177 3 -4 24 -47 46
-97z"/>
</g>
</svg>
