<svg width="20" height="20" xmlns="http://www.w3.org/2000/svg"><path d="M13.358 9.999a.705.705 0 01-.18.462l-2.96 2.957c-.591.591-1.492-.309-.9-.9l1.904-1.902H.622c-.155 0-.31-.052-.386-.129a.528.528 0 01-.232-.514C.08 6.45 1.856 3.185 4.918 1.36c5.558-3.317 13.045-.283 14.743 6.016C21.36 13.726 16.445 19.871 9.987 20c-.823.025-.823-1.26 0-1.286 3.55-.077 6.793-2.16 8.105-5.476 1.286-3.214.489-6.967-1.93-9.41C13.718 1.386 9.962.614 6.745 1.9 3.632 3.134 1.573 6.09 1.29 9.356h9.855L9.24 7.453c-.592-.591.334-1.49.9-.9l3.036 3.034c.13.103.18.257.18.412z" fill="#000" fill-rule="nonzero"/></svg>